<?xml version="1.0" encoding="iso-8859-1"?>
<!-- Generator: Adobe Illustrator 16.0.0, SVG Export Plug-In . SVG Version: 6.00 Build 0)  -->
<!DOCTYPE svg PUBLIC "-//W3C//DTD SVG 1.1//EN" "http://www.w3.org/Graphics/SVG/1.1/DTD/svg11.dtd">
<svg version="1.1" id="Calque_1" xmlns="http://www.w3.org/2000/svg" xmlns:xlink="http://www.w3.org/1999/xlink" x="0px" y="0px"
	 width="300px" height="300px" viewBox="30 40 220 220" style="enable-background:new 0 0 300 300;"
	 xml:space="preserve">
<g>
	<path style="fill:#FFFFFF;" d="M160.152,86c0,0-6.666-13.333-21.667-13.667c-15-0.333-19.332,14-21.666,25.333
		c0,0-4.334,22-5.334,23.667S91.152,142,96.152,165.668c5,23.666,22.667,27.666,22.667,27.666v30.334l6,2v-31L140.152,198v29.668
		h5.322v-29c0,0,11.012-1.668,17.012-4c0,0,6,8.998,31,7.332c0,0,3.332,0,2.332-3s-5.666-8.666-5.666-8.666s10,2.666,11.666,2.334
		c1.668-0.334,2.334-3,0-4c-2.332-1-18.332-15.668-20.666-25c-2.334-9.334-10.332-29-25.666-36c0,0-8.335-6.334-7.668-16.667
		c0.668-10.333,7-13.333,9.668-15C160.152,94.334,163.095,90.286,160.152,86z"/>
	<path style="fill:#E04A26;" d="M153.034,91.333c0,0,7.981,1.334,8.157-2.333l-1.49-3.333c0,0,18.334-0.667,20,10.667
		c0,0-5.334-1.923-8-1.667C161.609,95.637,152.701,93.667,153.034,91.333z"/>
	<path d="M143.367,83.167c0,0,4.255-2.5,5.961,2C149.328,85.167,144.367,87.667,143.367,83.167z"/>
</g>
</svg>
